<?xml version="1.0" standalone="no"?>
<!DOCTYPE svg PUBLIC "-//W3C//DTD SVG 20010904//EN"
 "http://www.w3.org/TR/2001/REC-SVG-20010904/DTD/svg10.dtd">
<svg version="1.0" xmlns="http://www.w3.org/2000/svg"
 width="260.000000pt" height="260.000000pt" viewBox="0 0 260.000000 260.000000"
 preserveAspectRatio="xMidYMid meet">
<metadata>
Created by potrace 1.14, written by Peter Selinger 2001-2017
</metadata>
<g transform="translate(0.000000,260.000000) scale(0.100000,-0.100000)"
fill="#000000" stroke="none">
<path d="M1438 2443 c12 -2 30 -2 40 0 9 3 -1 5 -23 4 -22 0 -30 -2 -17 -4z"/>
<path d="M1523 2433 c9 -2 25 -2 35 0 9 3 1 5 -18 5 -19 0 -27 -2 -17 -5z"/>
<path d="M1020 2420 c-216 -16 -494 -119 -665 -247 -77 -57 -216 -198 -214
-217 0 -5 -3 -12 -8 -15 -4 -3 -16 -22 -25 -41 -54 -117 -60 -133 -54 -155 3
-13 1 -27 -5 -31 -16 -9 -3 -129 22 -208 10 -33 32 -85 49 -114 53 -92 230
-262 271 -262 8 0 -5 16 -29 36 -23 20 -42 40 -42 44 0 5 -9 35 -21 66 -16 41
-30 61 -54 75 -21 13 -40 37 -54 69 -29 66 -26 78 4 14 14 -33 33 -57 51 -65
18 -9 39 -37 60 -77 48 -95 112 -156 152 -145 19 4 15 12 -41 68 -131 132
-163 181 -192 292 -16 61 -20 145 -6 108 5 -13 8 3 8 45 0 36 3 72 8 80 12 19
54 144 50 148 -1 1 -14 -22 -28 -52 -28 -58 -54 -87 -42 -45 7 24 52 120 80
170 26 47 148 161 224 211 136 89 259 138 462 183 113 26 406 31 544 11 142
-21 199 -38 103 -31 -225 17 -226 16 -53 -11 274 -44 541 -189 669 -363 40
-54 43 -63 21 -55 -11 5 -13 2 -9 -10 3 -8 15 -14 26 -13 17 2 25 -10 45 -68
25 -75 45 -223 32 -240 -4 -6 -11 -31 -15 -55 -11 -74 -79 -185 -169 -276
l-82 -82 36 -5 c30 -4 45 2 86 33 111 82 207 199 249 304 20 49 24 54 30 34 5
-16 -7 -49 -39 -113 -25 -49 -36 -79 -25 -65 91 112 125 315 80 479 -6 24 -13
41 -15 39 -2 -2 3 -30 11 -62 8 -32 14 -72 12 -89 -2 -26 -7 -17 -20 41 -28
118 -79 204 -183 308 -50 50 -123 111 -166 137 -75 47 -237 122 -245 115 -2
-3 31 -19 74 -37 43 -17 112 -54 153 -80 73 -47 239 -207 239 -230 0 -7 -4 -9
-10 -6 -6 4 -10 -13 -10 -43 0 -41 6 -57 35 -95 44 -58 44 -63 -1 -20 -32 29
-37 42 -44 101 -5 37 -12 76 -16 87 -15 42 -161 175 -240 220 -195 112 -390
162 -734 189 -25 2 16 3 90 1 94 -1 121 0 90 6 -70 13 -383 18 -510 9z m178
-17 c-10 -2 -26 -2 -35 0 -10 3 -2 5 17 5 19 0 27 -2 18 -5z m648 -97 c85 -31
234 -108 234 -122 0 -3 -4 -2 -10 1 -14 8 -13 -8 1 -22 6 -6 -45 16 -113 50
-68 34 -123 65 -120 70 2 4 -14 14 -35 23 -116 46 -87 46 43 0z m504 -919 c0
-2 -17 -19 -37 -38 l-38 -34 34 38 c33 34 41 42 41 34z"/>
<path d="M1684 2405 c61 -14 114 -24 119 -22 14 4 -122 36 -180 42 -26 3 1 -6
61 -20z"/>
<path d="M1608 2393 c6 -2 18 -2 25 0 6 3 1 5 -13 5 -14 0 -19 -2 -12 -5z"/>
<path d="M1658 2383 c6 -2 18 -2 25 0 6 3 1 5 -13 5 -14 0 -19 -2 -12 -5z"/>
<path d="M1708 2373 c7 -3 16 -2 19 1 4 3 -2 6 -13 5 -11 0 -14 -3 -6 -6z"/>
<path d="M1755 2360 c11 -5 27 -9 35 -9 9 0 8 4 -5 9 -11 5 -27 9 -35 9 -9 0
-8 -4 5 -9z"/>
<path d="M1113 2343 c9 -2 25 -2 35 0 9 3 1 5 -18 5 -19 0 -27 -2 -17 -5z"/>
<path d="M1840 2335 c46 -18 64 -17 25 0 -16 8 -37 14 -45 14 -8 0 1 -7 20
-14z"/>
<path d="M1043 2333 c9 -2 23 -2 30 0 6 3 -1 5 -18 5 -16 0 -22 -2 -12 -5z"/>
<path d="M950 2320 c-20 -6 -21 -8 -5 -8 11 0 34 4 50 8 27 7 27 8 5 8 -14 0
-36 -4 -50 -8z"/>
<path d="M898 2303 c7 -3 16 -2 19 1 4 3 -2 6 -13 5 -11 0 -14 -3 -6 -6z"/>
<path d="M641 2213 c-39 -21 -83 -48 -98 -60 -16 -13 10 -2 57 25 47 26 96 53
110 59 14 7 20 12 14 12 -6 1 -44 -16 -83 -36z"/>
<path d="M2340 2088 c41 -45 50 -53 50 -45 0 2 -21 23 -47 47 l-48 45 45 -47z"/>
<path d="M2405 2010 c10 -11 20 -20 23 -20 3 0 -3 9 -13 20 -10 11 -20 20 -23
20 -3 0 3 -9 13 -20z"/>
<path d="M321 1952 c-17 -31 -13 -40 5 -14 9 13 14 26 11 29 -3 2 -10 -4 -16
-15z"/>
<path d="M1635 1911 c-16 -9 -40 -15 -52 -13 -29 5 -64 -17 -98 -63 -50 -64
-15 -133 70 -138 22 -2 41 -9 46 -20 13 -22 29 -22 29 -1 0 20 28 43 53 44 21
0 22 9 0 25 -16 12 -10 40 7 30 5 -3 8 3 8 12 0 10 3 26 7 36 5 12 3 17 -9 17
-23 0 -20 26 6 44 20 14 18 21 -4 17 -5 0 -7 4 -5 11 3 19 -25 18 -58 -1z
m-20 -41 c-3 -5 -17 -10 -30 -10 -13 0 -33 -10 -45 -22 -11 -12 -23 -18 -27
-14 -14 13 46 56 78 56 18 0 28 -4 24 -10z m13 -60 c-1 -27 -8 -45 -25 -60
-12 -11 -23 -24 -23 -30 0 -5 -7 -10 -15 -10 -8 0 -15 5 -15 11 0 6 -7 8 -16
5 -20 -8 -54 20 -54 44 0 10 7 23 15 30 13 11 14 10 9 -4 -11 -28 19 -9 38 24
14 24 24 30 52 30 35 0 36 -1 34 -40z"/>
<path d="M336 1909 c7 -11 -24 -196 -38 -221 -11 -23 1 -23 18 -1 7 10 16 15
20 11 4 -4 1 -15 -7 -24 -12 -15 -12 -17 1 -12 22 7 48 153 32 179 -15 23 -8
37 22 49 21 9 21 9 -2 9 -13 1 -21 5 -18 9 2 4 -4 9 -15 9 -11 1 -17 -3 -13
-8z"/>
<path d="M738 1896 c-9 -6 -22 -51 -32 -104 -10 -52 -20 -100 -23 -108 -3 -9
2 -14 16 -14 13 0 21 6 21 16 0 13 7 15 38 10 27 -4 31 -3 16 3 -30 13 -37 28
-16 36 16 6 16 7 0 16 -19 11 -25 39 -8 39 5 0 16 16 26 35 17 36 30 41 124
48 33 3 27 4 -22 5 -59 2 -70 -1 -100 -25 -18 -15 -28 -21 -21 -14 6 8 9 20 6
27 -3 8 4 17 18 22 l23 9 -26 5 c-14 3 -32 0 -40 -6z"/>
<path d="M1108 1892 c-9 -9 -21 -48 -28 -87 -6 -38 -14 -79 -17 -90 -3 -16 -2
-17 6 -5 9 13 11 13 11 -2 0 -9 -5 -20 -12 -24 -8 -5 -6 -10 8 -15 27 -11 44
-11 44 1 0 5 -7 7 -15 4 -10 -4 -15 0 -15 11 0 12 6 16 19 12 13 -3 21 1 24
14 3 10 0 17 -5 16 -16 -3 -32 29 -24 49 4 11 10 14 14 8 4 -6 39 -11 77 -12
49 -1 62 2 45 7 -14 5 -35 6 -47 4 -11 -3 -31 1 -43 7 -21 11 -21 12 -4 31 17
18 17 20 -1 33 -22 16 -12 36 17 36 26 0 21 5 -13 13 -18 5 -31 1 -41 -11z
m32 -56 c0 -3 -4 -8 -10 -11 -5 -3 -10 -1 -10 4 0 6 5 11 10 11 6 0 10 -2 10
-4z"/>
<path d="M1947 1875 c-45 -46 -55 -104 -25 -155 19 -34 19 -35 0 -12 -25 27
-32 28 -25 2 6 -24 24 -39 54 -45 17 -4 20 -2 11 7 -17 17 -15 28 6 28 16 1
16 1 0 11 -10 5 -18 17 -18 25 0 8 4 13 9 9 6 -3 13 16 17 42 5 32 3 48 -5 51
-20 7 -12 32 14 44 27 12 33 28 10 28 -8 0 -29 -16 -48 -35z"/>
<path d="M575 1890 c4 -6 -10 -10 -36 -10 -54 0 -46 -9 10 -12 23 -1 44 -5 46
-8 3 -4 -4 -49 -15 -101 -11 -51 -20 -94 -20 -96 0 -9 59 -1 67 10 6 6 18 53
27 102 9 50 19 98 22 108 3 9 1 17 -5 17 -6 0 -11 -8 -11 -17 -1 -17 -1 -17
-11 0 -6 11 -22 17 -45 17 -21 0 -33 -4 -29 -10z m45 -199 c0 -6 -4 -13 -10
-16 -5 -3 -10 1 -10 9 0 9 5 16 10 16 6 0 10 -4 10 -9z"/>
<path d="M1030 1891 c0 -6 -17 -12 -37 -14 -34 -4 -33 -4 6 -3 26 1 46 6 49
14 2 6 -1 12 -7 12 -6 0 -11 -4 -11 -9z"/>
<path d="M1340 1890 c10 -7 -10 -10 -65 -10 -44 0 -85 -4 -92 -8 -6 -4 27 -6
74 -5 103 2 113 -1 113 -38 0 -25 -5 -30 -47 -44 l-48 -15 45 4 c32 3 51 12
67 30 13 16 28 23 37 20 11 -4 16 0 16 15 0 13 -6 21 -16 21 -14 0 -15 -2 -3
-17 13 -16 12 -17 -3 -5 -9 8 -15 19 -12 26 5 13 -36 36 -64 36 -15 0 -15 -2
-2 -10z"/>
<path d="M2184 1892 c5 -9 -7 -12 -40 -12 -60 0 -54 -8 9 -11 60 -3 71 -16 58
-64 -5 -20 -8 -42 -5 -50 3 -7 -10 -25 -28 -40 l-33 -27 30 7 c40 9 55 23 55
52 0 14 9 36 20 50 14 17 20 21 20 10 0 -8 -7 -17 -15 -21 -16 -6 -21 -46 -6
-46 5 0 7 -9 4 -20 -3 -11 -3 -20 0 -20 3 0 12 31 22 69 l17 69 -27 26 c-27
27 -95 50 -81 28z"/>
<path d="M1753 1870 c-10 -16 -10 -18 1 -14 7 3 23 -6 34 -21 23 -29 19 -65
-10 -72 -10 -3 -18 -10 -18 -15 0 -5 -4 -7 -9 -3 -5 3 -12 1 -16 -5 -16 -26
41 -6 70 24 35 37 51 38 34 2 -9 -19 -8 -19 10 3 30 34 26 53 -21 89 -49 37
-59 39 -75 12z m103 -57 c-6 -6 -36 9 -36 18 0 5 9 4 20 -3 10 -7 18 -14 16
-15z"/>
<path d="M380 1872 c0 -4 17 -6 38 -4 64 6 69 10 15 11 -29 0 -53 -3 -53 -7z"/>
<path d="M863 1813 c9 -2 25 -2 35 0 9 3 1 5 -18 5 -19 0 -27 -2 -17 -5z"/>
<path d="M950 1805 c-7 -8 -9 -15 -6 -15 4 0 14 7 22 15 9 8 11 15 6 15 -5 0
-15 -7 -22 -15z"/>
<path d="M980 1790 c0 -5 -35 -10 -77 -12 l-78 -3 79 -5 c67 -4 79 -3 87 13 6
11 6 17 -1 17 -5 0 -10 -4 -10 -10z"/>
<path d="M1380 1770 c-9 -6 -10 -10 -3 -10 6 0 15 5 18 10 8 12 4 12 -15 0z"/>
<path d="M1790 1720 c-9 -6 -10 -10 -3 -10 6 0 15 5 18 10 8 12 4 12 -15 0z"/>
<path d="M923 1713 c9 -2 23 -2 30 0 6 3 -1 5 -18 5 -16 0 -22 -2 -12 -5z"/>
<path d="M2038 1713 c7 -3 16 -2 19 1 4 3 -2 6 -13 5 -11 0 -14 -3 -6 -6z"/>
<path d="M1708 1698 c6 -6 18 -8 28 -6 14 3 12 5 -9 10 -19 3 -25 2 -19 -4z"/>
<path d="M808 1693 c7 -3 16 -2 19 1 4 3 -2 6 -13 5 -11 0 -14 -3 -6 -6z"/>
<path d="M883 1693 c9 -2 25 -2 35 0 9 3 1 5 -18 5 -19 0 -27 -2 -17 -5z"/>
<path d="M993 1686 c-4 -8 -26 -16 -48 -19 l-40 -4 46 -1 c35 -2 48 2 53 14 8
22 0 30 -11 10z"/>
<path d="M1665 1680 c-10 -11 -13 -20 -7 -20 6 0 16 9 22 20 6 11 9 20 7 20
-2 0 -12 -9 -22 -20z"/>
<path d="M2003 1693 c9 -2 23 -2 30 0 6 3 -1 5 -18 5 -16 0 -22 -2 -12 -5z"/>
<path d="M2083 1663 c15 -2 37 -2 50 0 12 2 0 4 -28 4 -27 0 -38 -2 -22 -4z"/>
<path d="M2230 1603 c0 -5 -17 -9 -37 -11 -67 -4 -111 -22 -172 -68 -55 -41
-191 -181 -199 -205 -7 -19 34 7 82 53 36 33 59 48 79 48 16 0 26 4 23 9 -7
10 93 110 128 128 40 21 74 23 88 5 11 -15 11 -15 -3 -4 -15 11 -18 7 -28 -32
-6 -25 -8 -51 -5 -60 10 -27 -35 -45 -92 -37 -45 6 -51 5 -42 -8 7 -11 24 -16
59 -15 l49 2 -6 -49 -7 -49 35 0 35 0 22 113 c13 61 25 122 28 134 4 16 0 21
-14 20 -12 -1 -17 4 -15 16 2 9 0 17 -3 17 -3 0 -5 -3 -5 -7z m-120 -49 c-14
-10 -42 -33 -62 -52 -21 -20 -41 -32 -45 -29 -11 12 95 96 122 97 5 0 -2 -7
-15 -16z m-115 -93 c3 -5 1 -12 -5 -16 -5 -3 -10 1 -10 9 0 18 6 21 15 7z
m215 -36 c0 -8 -4 -15 -10 -15 -5 0 -7 7 -4 15 4 8 8 15 10 15 2 0 4 -7 4 -15z
m0 -85 c0 -5 -7 -10 -15 -10 -8 0 -15 5 -15 10 0 6 7 10 15 10 8 0 15 -4 15
-10z"/>
<path d="M318 1593 c7 -3 16 -2 19 1 4 3 -2 6 -13 5 -11 0 -14 -3 -6 -6z"/>
<path d="M568 1593 c6 -2 18 -2 25 0 6 3 1 5 -13 5 -14 0 -19 -2 -12 -5z"/>
<path d="M840 1586 c-30 -7 -71 -20 -90 -30 -50 -27 -258 -236 -234 -236 10 0
43 23 72 50 32 30 63 50 76 50 14 0 27 9 34 25 9 20 9 23 -3 18 -49 -18 34 66
95 97 16 8 9 -2 -20 -29 l-45 -42 48 35 c44 31 102 54 113 44 2 -2 -1 -20 -6
-39 -6 -18 -10 -46 -10 -61 0 -15 -5 -30 -12 -34 -18 -11 -118 -11 -118 0 0 5
-2 7 -5 4 -3 -3 -3 -11 0 -19 4 -10 22 -14 58 -14 56 0 57 -2 43 -60 -5 -21
-3 -25 14 -25 11 0 20 7 20 15 0 8 7 15 15 15 18 0 20 -17 3 -23 -7 -2 -10 -8
-5 -12 4 -5 10 -6 13 -3 10 11 61 258 52 258 -4 0 -8 -5 -8 -11 0 -5 -10 1
-22 14 -22 24 -25 25 -78 13z"/>
<path d="M997 1580 c-22 -17 -25 -28 -25 -75 1 -45 5 -59 22 -70 11 -8 27 -15
36 -14 10 0 11 2 3 6 -28 11 -10 23 35 24 l47 2 -39 6 c-21 3 -44 14 -50 23
-16 26 2 35 20 10 11 -17 24 -22 52 -21 l37 2 -40 6 -40 6 1 46 c0 40 -2 45
-18 41 -20 -5 -25 14 -5 21 7 3 8 6 1 6 -6 1 -23 -8 -37 -19z m10 -32 c-3 -8
-6 -5 -6 6 -1 11 2 17 5 13 3 -3 4 -12 1 -19z"/>
<path d="M1449 1583 c-20 -12 -28 -27 -33 -60 -3 -23 -8 -55 -12 -70 -4 -23
-3 -25 6 -13 9 12 10 9 5 -14 -3 -15 -9 -42 -12 -58 -4 -21 -8 -26 -14 -16 -6
9 -9 7 -9 -9 0 -26 25 -31 34 -8 3 8 12 15 21 15 17 0 20 -16 5 -23 -6 -3 -5
-4 2 -3 6 1 17 25 23 54 8 34 8 50 2 49 -15 -3 -21 33 -9 45 7 7 18 3 34 -14
13 -13 42 -39 66 -57 24 -19 39 -38 35 -44 -3 -7 -3 -9 2 -5 10 10 47 -10 40
-22 -3 -5 0 -12 6 -16 8 -4 9 -3 5 4 -4 7 -3 12 3 12 5 0 13 -6 17 -12 6 -9
10 -5 14 12 5 21 -1 30 -39 59 -26 19 -48 36 -50 37 -2 2 -5 19 -6 38 -3 32 0
36 53 64 32 17 66 38 77 47 20 16 19 16 -5 9 -33 -8 -193 -94 -202 -108 -14
-22 -33 11 -21 36 19 39 22 57 13 63 -6 4 -10 -2 -10 -12 -1 -17 -1 -17 -11 0
-5 9 -7 22 -4 27 8 13 5 12 -26 -7z m21 -73 c-6 -11 -12 -20 -14 -20 -2 0 -2
9 1 20 3 11 9 20 15 20 5 0 4 -9 -2 -20z"/>
<path d="M1754 1588 c-3 -4 3 -5 12 -1 12 4 15 3 10 -5 -9 -16 5 -15 26 2 15
11 14 13 -13 13 -16 0 -32 -4 -35 -9z"/>
<path d="M280 1575 c0 -8 -5 -15 -11 -15 -5 0 -8 -4 -5 -8 3 -5 33 -10 68 -11
34 -1 64 -4 67 -7 2 -2 -1 -34 -8 -71 -18 -102 -19 -143 -5 -143 6 0 14 7 18
15 3 8 13 15 22 15 13 0 14 -3 5 -14 -7 -9 -8 -17 -3 -20 11 -7 15 8 33 118
11 63 11 80 1 84 -6 2 -12 12 -12 23 0 19 16 26 80 32 19 2 -21 4 -90 4 -69 0
-108 -2 -87 -4 55 -6 45 -23 -14 -23 -42 0 -49 2 -40 13 6 8 8 17 4 20 -11 12
-23 8 -23 -8z"/>
<path d="M1307 1575 c-11 -7 -19 -27 -19 -45 -1 -22 -10 -38 -32 -55 -24 -19
-27 -25 -13 -25 10 0 15 -4 12 -10 -3 -5 -26 -10 -51 -10 -31 0 -43 -4 -38
-11 4 -7 23 -9 51 -5 l44 6 -3 -50 c-4 -67 16 -68 22 -1 3 30 10 56 17 58 9 3
10 -4 2 -29 -12 -44 -12 -48 7 -48 14 0 14 -3 4 -15 -7 -9 -8 -15 -2 -15 14 0
20 20 43 133 23 120 24 128 3 120 -9 -3 -19 -1 -23 5 -4 7 -12 6 -24 -3z m0
-117 c-3 -8 -6 -5 -6 6 -1 11 2 17 5 13 3 -3 4 -12 1 -19z"/>
<path d="M231 1564 c0 -11 3 -14 6 -6 3 7 2 16 -1 19 -3 4 -6 -2 -5 -13z"/>
<path d="M618 1559 c-15 -15 -15 -19 -3 -19 8 0 19 9 25 20 13 25 1 25 -22 -1z"/>
<path d="M1672 1528 c-40 -22 -71 -42 -69 -44 4 -4 157 75 157 82 0 9 -18 2
-88 -38z"/>
<path d="M523 1543 c15 -2 37 -2 50 0 12 2 0 4 -28 4 -27 0 -38 -2 -22 -4z"/>
<path d="M230 1535 c1 -6 7 -21 16 -35 l15 -25 -7 25 c-7 26 -24 52 -24 35z"/>
<path d="M1661 1404 c41 -30 73 -62 73 -70 -1 -8 7 -14 22 -14 13 0 24 2 24 4
0 6 -179 136 -187 136 -4 0 27 -25 68 -56z"/>
<path d="M1392 1400 c0 -14 2 -19 5 -12 2 6 2 18 0 25 -3 6 -5 1 -5 -13z"/>
<path d="M1530 1397 c0 -3 12 -12 26 -22 15 -9 23 -12 20 -6 -7 11 -46 35 -46
28z"/>
<path d="M620 1363 c-12 -16 -31 -33 -43 -40 -17 -10 -18 -12 -5 -13 9 0 31
18 48 40 17 22 29 40 27 40 -3 0 -15 -12 -27 -27z"/>
<path d="M1911 1339 c-13 -11 -22 -22 -19 -24 2 -3 15 6 28 20 28 30 24 32 -9
4z"/>
<path d="M415 1250 c33 -33 62 -60 64 -60 3 0 -21 27 -54 60 -33 33 -62 60
-64 60 -3 0 21 -27 54 -60z"/>
<path d="M769 1273 c-54 -59 -86 -99 -66 -84 13 10 56 13 177 12 88 -1 160 1
160 6 0 9 584 8 599 -2 6 -3 11 -2 11 4 0 17 -41 24 -145 26 -55 2 -171 6
-257 10 -110 5 -158 4 -158 -3 0 -7 -13 -9 -35 -5 -19 3 -35 2 -35 -3 0 -6
-33 -7 -77 -3 -43 4 -89 5 -103 3 -51 -8 -100 -11 -100 -6 0 4 17 23 37 44 20
21 35 38 32 38 -3 0 -21 -17 -40 -37z"/>
<path d="M1733 1226 c54 -54 82 -58 82 -11 0 29 -2 30 -50 33 -27 2 -56 8 -65
14 -8 6 6 -10 33 -36z"/>
<path d="M1705 1210 c3 -5 11 -10 16 -10 6 0 7 5 4 10 -3 6 -11 10 -16 10 -6
0 -7 -4 -4 -10z"/>
<path d="M1693 1173 c9 -2 23 -2 30 0 6 3 -1 5 -18 5 -16 0 -22 -2 -12 -5z"/>
<path d="M1958 1143 c7 -3 16 -2 19 1 4 3 -2 6 -13 5 -11 0 -14 -3 -6 -6z"/>
<path d="M2114 1142 c9 -8 -46 -52 -57 -46 -9 5 -9 4 -1 -5 8 -9 21 -7 55 8
71 32 76 38 35 43 -19 2 -34 2 -32 0z"/>
<path d="M2198 1123 c9 -3 -3 -13 -30 -25 -27 -13 -37 -22 -28 -25 8 -2 25 -9
37 -15 16 -8 49 -7 118 2 52 7 98 10 101 7 3 -3 -19 -8 -48 -12 -72 -9 -128
-26 -122 -36 3 -5 -5 -10 -18 -10 -55 -3 -74 -6 -95 -13 -36 -12 -123 -16
-123 -5 0 5 -5 9 -11 9 -6 0 -9 -7 -5 -15 5 -13 -38 -15 -347 -16 -194 0 -406
-2 -472 -4 -527 -15 -728 -16 -744 -1 -13 12 -51 15 -184 16 -118 1 -167 5
-167 13 0 6 -12 0 -27 -15 -22 -23 -24 -29 -13 -43 7 -8 10 -18 7 -21 -3 -4 2
-23 12 -43 9 -20 17 -55 16 -78 -1 -36 2 -43 22 -48 31 -7 29 -21 -4 -33 l-28
-9 35 -12 c35 -11 34 -11 -11 -5 -41 4 -47 2 -52 -16 -6 -24 2 -60 14 -60 4 0
16 -27 25 -61 18 -63 17 -62 123 -141 25 -19 49 -46 54 -63 14 -45 26 -56 92
-85 72 -33 161 -54 315 -76 172 -25 198 -27 180 -15 -11 8 12 11 85 12 120 1
114 5 -18 14 -91 6 -99 9 -109 31 -8 18 -8 27 3 40 12 15 12 16 -6 10 -21 -6
-23 -3 -28 54 l-2 25 413 0 c360 1 412 -1 412 -14 0 -12 3 -11 13 3 11 15 33
19 127 24 l113 5 -6 -33 c-4 -18 -7 -39 -7 -46 0 -8 -6 -11 -15 -8 -18 7 -20
-12 -2 -19 20 -9 -14 -27 -51 -27 -18 0 -40 -7 -48 -15 -14 -13 -13 -15 2 -15
10 0 15 -3 11 -6 -8 -8 -125 -15 -442 -25 -148 -4 -299 -13 -335 -18 -54 -8
-41 -9 83 -6 98 3 145 0 141 -7 -4 -6 33 -8 112 -6 444 15 526 19 546 28 13 5
76 19 140 30 118 20 257 64 314 99 17 11 42 38 55 61 20 36 34 47 86 67 79 32
153 94 136 115 -16 19 -5 56 18 63 27 9 40 38 33 75 -6 25 -17 36 -63 60 -48
25 -53 30 -34 36 18 5 23 16 28 63 4 31 11 69 16 85 9 30 3 72 -14 94 -21 27
-109 63 -212 87 -98 23 -150 31 -117 18z m270 -83 c17 -11 32 -22 32 -25 0 -5
-41 15 -70 34 -28 19 5 11 38 -9z m-2255 -87 c-13 -2 -33 -2 -45 0 -13 2 -3 4
22 4 25 0 35 -2 23 -4z m2222 -68 c0 -33 -4 -70 -8 -82 -7 -18 -5 -23 9 -23
10 0 15 -3 11 -6 -9 -10 -245 -43 -351 -49 -56 -4 -113 -10 -128 -15 -17 -5
-30 -5 -33 1 -4 5 -1 9 5 9 6 0 8 5 5 10 -3 6 -1 10 6 10 8 0 9 10 5 30 -4 22
-1 32 8 36 20 8 28 34 15 50 -8 10 -5 17 10 31 12 9 21 27 21 38 1 20 1 20 15
1 14 -19 19 -19 103 -6 169 26 188 28 247 26 l60 -1 0 -60z m-1922 35 c-3 -12
2 -29 12 -40 10 -11 15 -26 12 -34 -3 -8 1 -22 8 -33 8 -10 15 -29 15 -43 0
-15 6 -32 13 -39 10 -11 -23 -12 -193 -7 -113 3 -216 9 -230 13 l-25 7 25 7
25 7 -26 1 c-23 1 -28 7 -35 44 -4 23 -6 54 -5 70 1 15 -3 27 -8 27 -6 0 -11
5 -11 11 0 7 62 10 197 8 142 -2 198 1 201 9 7 22 30 13 25 -8z m627 -64 c0
-9 -30 -14 -35 -6 -4 6 3 10 14 10 12 0 21 -2 21 -4z m56 -7 c3 -6 1 -16 -5
-22 -9 -9 -10 -7 -5 7 6 16 4 18 -14 14 -12 -4 -20 -2 -16 3 7 12 31 11 40 -2z
m42 -6 c-6 -7 -12 -13 -13 -13 -2 0 -5 6 -8 13 -3 7 3 13 14 13 13 0 15 -3 7
-13z m50 10 c-10 -2 -18 -12 -18 -20 0 -9 -3 -14 -6 -10 -12 11 5 37 23 36 17
-1 17 -2 1 -6z m55 -13 c-3 -11 -7 -20 -8 -20 -1 0 -5 9 -8 20 -3 12 0 20 8
20 8 0 11 -8 8 -20z m57 0 c7 -14 7 -20 0 -20 -5 0 -10 8 -10 17 0 15 -2 14
-15 -3 -14 -18 -14 -18 -8 4 7 27 19 28 33 2z m-90 -4 c0 -2 -8 -10 -17 -17
-16 -13 -17 -12 -4 4 13 16 21 21 21 13z m1040 -172 c-36 -7 -150 -18 -255
-26 -241 -17 -1267 -17 -1510 0 -93 7 -213 15 -265 18 -141 10 -158 26 -20 19
63 -3 165 -5 225 -5 68 0 105 -4 96 -9 -26 -17 147 -22 514 -18 198 3 362 6
365 7 3 1 57 1 120 0 189 -4 371 1 500 14 30 3 97 6 148 7 51 1 94 5 97 9 3 5
15 5 28 2 16 -5 4 -9 -43 -18z m-2173 10 c-3 -3 -12 -4 -19 -1 -8 3 -5 6 6 6
11 1 17 -2 13 -5z m161 -39 c378 -27 612 -35 1097 -37 428 -1 459 -2 285 -10
-424 -19 -1508 23 -1628 63 -25 9 -25 9 6 4 18 -2 126 -11 240 -20z m1715 -32
c-24 -2 -62 -2 -85 0 -24 2 -5 4 42 4 47 0 66 -2 43 -4z m-303 -393 c-19 -13
-30 -13 -30 0 0 6 10 10 23 10 18 0 19 -2 7 -10z m-47 -37 c-13 -2 -35 -2 -50
0 -16 2 -5 4 22 4 28 0 40 -2 28 -4z"/>
<path d="M538 1113 c7 -3 16 -2 19 1 4 3 -2 6 -13 5 -11 0 -14 -3 -6 -6z"/>
<path d="M208 1053 c7 -3 16 -2 19 1 4 3 -2 6 -13 5 -11 0 -14 -3 -6 -6z"/>
<path d="M1702 348 c-19 -19 -14 -46 8 -50 28 -4 21 -24 -7 -20 -32 4 -29 -16
3 -24 17 -4 31 -1 41 9 19 19 10 47 -17 54 -26 7 -15 23 16 23 13 0 24 5 24
10 0 14 -54 12 -68 -2z"/>
<path d="M1607 343 c-4 -3 -7 -17 -7 -30 0 -18 5 -23 26 -23 16 0 24 -5 21
-12 -2 -7 -16 -12 -31 -10 -31 3 -28 -13 4 -21 24 -6 52 18 48 42 -2 9 -13 17
-26 19 -30 5 -28 22 2 22 14 0 28 5 31 10 7 11 -57 14 -68 3z"/>
<path d="M966 308 c-23 -32 -21 -85 3 -98 27 -14 47 -13 65 6 21 20 5 51 -29
60 -29 7 -30 11 -8 36 14 16 15 18 0 18 -9 0 -23 -10 -31 -22z m50 -59 c3 -6
1 -16 -4 -21 -13 -13 -45 8 -36 23 7 12 31 11 40 -2z"/>
<path d="M1070 315 c-18 -21 -3 -32 22 -16 15 9 23 10 31 2 8 -8 1 -22 -26
-49 -21 -21 -34 -41 -31 -45 11 -11 94 -8 94 3 0 6 -14 10 -31 10 l-31 0 31
29 c35 33 38 43 15 65 -20 20 -58 21 -74 1z"/>
<path d="M1192 318 c-25 -25 -6 -68 30 -68 23 0 23 -8 1 -33 -17 -19 -17 -19
2 -16 11 3 29 21 40 41 16 30 17 40 7 62 -13 28 -58 36 -80 14z m58 -23 c0 -9
-7 -18 -16 -22 -18 -7 -39 11 -30 26 11 17 46 13 46 -4z"/>
<path d="M1290 310 c0 -5 5 -10 10 -10 6 0 10 5 10 10 0 6 -4 10 -10 10 -5 0
-10 -4 -10 -10z"/>
<path d="M816 268 c8 -49 12 -58 24 -58 5 0 10 9 10 20 0 14 7 20 24 20 27 0
40 22 23 39 -6 6 -28 11 -49 11 -37 0 -37 -1 -32 -32z m56 0 c-9 -9 -15 -9
-24 0 -9 9 -7 12 12 12 19 0 21 -3 12 -12z"/>
<path d="M1317 293 c-11 -10 -8 -93 3 -93 6 0 10 11 10 25 0 26 14 33 25 14 5
-7 14 -4 27 8 19 17 19 17 16 -7 -2 -14 2 -27 7 -30 6 -3 11 15 13 43 3 53 -2
56 -34 26 l-23 -21 -13 21 c-14 22 -20 25 -31 14z"/>
<path d="M1440 251 c0 -50 1 -51 29 -51 39 0 57 19 56 61 0 33 -2 34 -42 37
l-43 3 0 -50z m61 24 c0 -5 -9 -11 -21 -13 -20 -3 -27 8 -13 22 10 9 34 3 34
-9z m-1 -45 c0 -5 -9 -10 -20 -10 -11 0 -20 5 -20 10 0 6 9 10 20 10 11 0 20
-4 20 -10z"/>
<path d="M1564 237 c3 -10 6 -21 6 -23 0 -2 9 -4 20 -4 11 0 20 6 20 14 0 8
-8 13 -17 12 -10 -2 -22 2 -26 8 -6 7 -7 4 -3 -7z"/>
<path d="M1675 240 c-3 -5 -1 -10 4 -10 6 0 11 5 11 10 0 6 -2 10 -4 10 -3 0
-8 -4 -11 -10z"/>
<path d="M1620 223 c0 -19 17 -24 30 -8 9 10 9 15 1 15 -6 0 -11 -6 -11 -12 0
-9 -4 -8 -10 2 -6 9 -10 10 -10 3z"/>
</g>
</svg>
